{"title":"The Eagle [2011] R5 Rip XviD [DAYN]-D3MT","uid":6316316,"size":1022109208,"categoryP":"video","categoryS":"movies","magnet":"?xt=urn:btih:abd5e2bbbc465ab974b51aa56cc405bf6f3d2df0&amp;dn=The+Eagle+%5B2011%5D+R5+Rip+XviD+%5BDAYN%5D-D3MT&amp;tr=udp%3A%2F%2Ftracker.openbittorrent.com%3A80&amp;tr=udp%3A%2F%2Fopen.demonii.com%3A1337&amp;tr=udp%3A%2F%2Ftracker.coppersurfer.tk%3A6969&amp;tr=udp%3A%2F%2Fexodus.desync.com%3A6969","seeders":0,"leechers":1,"uploader":"arihantkatariya","files":2,"time":1302716151,"description":"The Eagle [2011] R5 Rip XviD [DAYN]-D3MT-DAYN DOT ORG\n\n\nFormat                           : AVI\nFormat/Info                      : Audio Video Interleave\nFile size                        : 938 MiB\nDuration                         : 1h 49mn\nOverall bit rate                 : 1 199 Kbps\nWriting application              : Lavf52.39.1\n\nVideo\nID                               : 0\nFormat                           : MPEG-4 Visual\nFormat settings, BVOP            : 1\nFormat settings, QPel            : No\nFormat settings, GMC             : No warppoints\nFormat settings, Matrix          : Default (H.263)\nMuxing mode                      : Packed bitstream\nCodec ID                         : DX50\nCodec ID/Hint                    : DivX 5\nDuration                         : 1h 49mn\nBit rate                         : 1 058 Kbps\nWidth                            : 640 pixels\nHeight                           : 272 pixels\nDisplay aspect ratio             : 2.35:1\nFrame rate                       : 25.000 fps\nColor space                      : YUV\nChroma subsampling               : 4:2:0\nBit depth                        : 8 bits\nScan type                        : Progressive\nCompression mode                 : Lossy\nBits/(Pixel*Frame)               : 0.243\nStream size                      : 829 MiB (88%)\nWriting library                  : DivX 6.8.5 (UTC 2009-08-20)\n\nAudio\nID                               : 1\nFormat                           : MPEG Audio\nFormat version                   : Version 1\nFormat profile                   : Layer 3\nMode                             : Joint stereo\nMode extension                   : MS Stereo\nCodec ID                         : 55\nCodec ID/Hint                    : MP3\nDuration                         : 1h 49mn\nBit rate mode                    : Constant\nBit rate                         : 128 Kbps\nChannel(s)                       : 2 channels\nSampling rate                    : 44.1 KHz\nCompression mode                 : Lossy\nStream size                      : 100 MiB (11%)\nAlignment                        : Aligned on interleaves\nInterleave, duration             : 26 ms (0.65 video frame)\nWriting library                  : LAME3.96.1\n\nGreetz - Imagine","torrent":{"xt":"urn:btih:abd5e2bbbc465ab974b51aa56cc405bf6f3d2df0","amp;dn":"The+Eagle+%5B2011%5D+R5+Rip+XviD+%5BDAYN%5D-D3MT","amp;tr":["udp%3A%2F%2Ftracker.openbittorrent.com%3A80","udp%3A%2F%2Fopen.demonii.com%3A1337","udp%3A%2F%2Ftracker.coppersurfer.tk%3A6969","udp%3A%2F%2Fexodus.desync.com%3A6969"],"infoHash":"abd5e2bbbc465ab974b51aa56cc405bf6f3d2df0","infoHashBuffer":{"type":"Buffer","data":[171,213,226,187,188,70,90,185,116,181,26,165,108,196,5,191,111,61,45,240]},"announce":[],"urlList":[]}}